<?xml version="1.0" encoding="UTF-8"?>
<svg width="375px" height="667px" viewBox="0 0 375 667" version="1.1" xmlns="http://www.w3.org/2000/svg" xmlns:xlink="http://www.w3.org/1999/xlink">
    <!-- Generator: Sketch 61 (89581) - https://sketch.com -->
    <title>iPhone 7 Copy</title>
    <desc>Created with Sketch.</desc>
    <defs>
        <rect id="path-1" x="26" y="134" width="80.5" height="32" rx="15"></rect>
        <filter x="-8.7%" y="-15.6%" width="117.4%" height="143.8%" filterUnits="objectBoundingBox" id="filter-2">
            <feOffset dx="0" dy="2" in="SourceAlpha" result="shadowOffsetOuter1"></feOffset>
            <feGaussianBlur stdDeviation="2" in="shadowOffsetOuter1" result="shadowBlurOuter1"></feGaussianBlur>
            <feColorMatrix values="0 0 0 0 0.996078431   0 0 0 0 0.180392157   0 0 0 0 0.333333333  0 0 0 1 0" type="matrix" in="shadowBlurOuter1"></feColorMatrix>
        </filter>
        <rect id="path-3" x="0" y="0" width="375" height="47"></rect>
        <filter x="-1.9%" y="-10.6%" width="103.7%" height="129.8%" filterUnits="objectBoundingBox" id="filter-4">
            <feOffset dx="0" dy="2" in="SourceAlpha" result="shadowOffsetOuter1"></feOffset>
            <feGaussianBlur stdDeviation="2" in="shadowOffsetOuter1" result="shadowBlurOuter1"></feGaussianBlur>
            <feColorMatrix values="0 0 0 0 0   0 0 0 0 0   0 0 0 0 0  0 0 0 0.5 0" type="matrix" in="shadowBlurOuter1"></feColorMatrix>
        </filter>
        <path d="M353.981246,98.496246 C354.6809,98.496246 355.275596,98.7411221 355.765352,99.2308781 C356.255108,99.7206341 356.499984,100.305338 356.499984,100.985 C356.499984,101.664662 356.255108,102.249365 355.765352,102.739121 C355.275596,103.228877 354.6809,103.473753 353.981246,103.473753 L349.003738,103.383798 L349.003738,108.481246 C349.003738,109.160909 348.758862,109.74561 348.269106,110.235367 C347.77935,110.725124 347.184654,110.969999 346.485,110.969999 C345.785345,110.969999 345.195649,110.725124 344.715886,110.235367 C344.236122,109.74561 343.996246,109.160909 343.996246,108.481246 L344.086201,103.383798 L338.988754,103.473753 C338.289101,103.473753 337.699402,103.228877 337.21964,102.739121 C336.739877,102.249365 336.5,101.664662 336.5,100.985 C336.5,100.305338 336.739877,99.7206341 337.21964,99.2308781 C337.699402,98.7411221 338.289101,98.496246 338.988754,98.496246 L344.086201,98.496246 L343.996246,93.4887537 C343.996246,92.8090915 344.236122,92.2243881 344.715886,91.7346321 C345.195649,91.2448761 345.785345,91 346.485,91 C347.184654,91 347.77935,91.2448761 348.269106,91.7346321 C348.758862,92.2243881 349.003738,92.8090915 349.003738,93.4887537 L349.003738,98.496246 L353.981246,98.496246 Z" id="path-5"></path>
        <filter x="-35.0%" y="-25.0%" width="170.0%" height="170.1%" filterUnits="objectBoundingBox" id="filter-6">
            <feOffset dx="0" dy="2" in="SourceAlpha" result="shadowOffsetOuter1"></feOffset>
            <feGaussianBlur stdDeviation="2" in="shadowOffsetOuter1" result="shadowBlurOuter1"></feGaussianBlur>
            <feColorMatrix values="0 0 0 0 0.996078431   0 0 0 0 0.180392157   0 0 0 0 0.333333333  0 0 0 0.5 0" type="matrix" in="shadowBlurOuter1"></feColorMatrix>
        </filter>
    </defs>
    <g id="iPhone-7-Copy" stroke="none" stroke-width="1" fill="none" fill-rule="evenodd">
        <rect id="Rectangle-3" fill="#FFFFFF" x="0" y="0" width="375" height="667"></rect>
        <text id="Search" font-family="SFProText-Heavy, SF Pro Text" font-size="17" font-weight="600" letter-spacing="-0.648125" fill="#000000">
            <tspan x="158.528115" y="48">Search</tspan>
        </text>
        <g id="Search-result-1-" transform="translate(18.000000, 202.000000)">
            <text id="0,20-xp-every-minute" font-family="SFProDisplay-Semibold, SF Pro Display" font-size="12" font-weight="500" letter-spacing="-0.2894117">
                <tspan x="20.9341561" y="42" fill="#000000">0,20</tspan>
                <tspan x="45.0948686" y="42" font-family="SFProDisplay-Light, SF Pro Display" font-weight="300" fill="#4A4A4A"> </tspan>
                <tspan x="47.2605351" y="42" font-family="SFProDisplay-Bold, SF Pro Display" font-weight="bold" fill="#2DCA5F">xp</tspan>
                <tspan x="60.1348367" y="42" font-family="SFProDisplay-Light, SF Pro Display" font-weight="300" fill="#4A4A4A"> </tspan>
                <tspan x="62.3005031" y="42" fill="#000000">every minute</tspan>
            </text>
            <g id="Rating" transform="translate(1.000000, 29.000000)" fill="#FE2E55">
                <path d="M8,0 C12.418278,0 16,3.581722 16,8 C16,12.418278 12.418278,16 8,16 C3.581722,16 0,12.418278 0,8 C0,3.581722 3.581722,0 8,0 Z M9.18474492,3.54492188 L7.1046668,3.54492188 L4.16911992,12 L5.98552617,12 L6.63005742,9.94921875 L9.60076055,9.94921875 L10.2452918,12 L12.1261512,12 L9.18474492,3.54492188 Z M8.1359168,5.16210938 L9.21990117,8.625 L7.0109168,8.625 L8.09490117,5.16210938 L8.1359168,5.16210938 Z" id="Combined-Shape"></path>
            </g>
            <text id="Football" font-family="SFProText-Bold, SF Pro Text" font-size="18" font-weight="bold" letter-spacing="-0.4341176" fill="#000000">
                <tspan x="0.0201618063" y="17">Football</tspan>
            </text>
        </g>
        <g id="Search-result-2" transform="translate(11.000000, 297.000000)">
            <text id="0,20-xp-every-minute" font-family="SFProDisplay-Semibold, SF Pro Display" font-size="12" font-weight="500" letter-spacing="-0.2894117">
                <tspan x="27.9341561" y="42" fill="#000000">0,20</tspan>
                <tspan x="52.0948686" y="42" font-family="SFProDisplay-Light, SF Pro Display" font-weight="300" fill="#4A4A4A"> </tspan>
                <tspan x="54.2605351" y="42" font-family="SFProDisplay-Bold, SF Pro Display" font-weight="bold" fill="#2DCA5F">xp</tspan>
                <tspan x="67.1348367" y="42" font-family="SFProDisplay-Light, SF Pro Display" font-weight="300" fill="#4A4A4A"> </tspan>
                <tspan x="69.3005031" y="42" fill="#000000">every minute</tspan>
            </text>
            <g id="Rating" transform="translate(0.000000, 38.000000)" fill="#65B3FC">
                <path d="M8,0 C12.418278,0 16,3.581722 16,8 C16,12.418278 12.418278,16 8,16 C3.581722,16 0,12.418278 0,8 C0,3.581722 3.581722,0 8,0 Z M8.73945313,4 L5.3,4 L5.3,12.4550781 L7.06953125,12.4550781 L7.06953125,9.7890625 L8.6515625,9.7890625 C10.4328125,9.7890625 11.6691406,8.62890625 11.6691406,6.89453125 C11.6691406,5.15429688 10.4738281,4 8.73945313,4 Z M8.27070313,5.40039062 C9.284375,5.40039062 9.8703125,5.93945312 9.8703125,6.90039062 C9.8703125,7.8671875 9.27851563,8.40625 8.26484375,8.40625 L7.06953125,8.40625 L7.06953125,5.40039062 L8.27070313,5.40039062 Z" id="Combined-Shape"></path>
            </g>
            <text id="Basketball" font-family="SFProText-Bold, SF Pro Text" font-size="18" font-weight="bold" letter-spacing="-0.4341176" fill="#000000">
                <tspan x="7.30193566" y="17">Basketball</tspan>
            </text>
        </g>
        <g id="Search-result-3" transform="translate(18.000000, 391.000000)">
            <text id="0,20-xp-every-minute" font-family="SFProDisplay-Semibold, SF Pro Display" font-size="12" font-weight="500" letter-spacing="-0.2894117">
                <tspan x="20.9341561" y="42" fill="#000000">0,20</tspan>
                <tspan x="45.0948686" y="42" font-family="SFProDisplay-Light, SF Pro Display" font-weight="300" fill="#4A4A4A"> </tspan>
                <tspan x="47.2605351" y="42" font-family="SFProDisplay-Bold, SF Pro Display" font-weight="bold" fill="#2DCA5F">xp</tspan>
                <tspan x="60.1348367" y="42" font-family="SFProDisplay-Light, SF Pro Display" font-weight="300" fill="#4A4A4A"> </tspan>
                <tspan x="62.3005031" y="42" fill="#000000">every minute</tspan>
            </text>
            <g id="Rating" transform="translate(1.000000, 29.000000)" fill="#FE2E55">
                <circle id="rateOval" cx="8" cy="8" r="8"></circle>
            </g>
            <text id="Volleyball" font-family="SFProText-Bold, SF Pro Text" font-size="18" font-weight="bold" letter-spacing="-0.4341176" fill="#000000">
                <tspan x="0.707697375" y="17">Volleyball</tspan>
            </text>
        </g>
        <g id="Search-result-4" transform="translate(19.000000, 487.000000)">
            <text id="0,20-xp-every-minute" font-family="SFProDisplay-Semibold, SF Pro Display" font-size="12" font-weight="500" letter-spacing="-0.2894117">
                <tspan x="20.9341561" y="42" fill="#000000">0,20</tspan>
                <tspan x="45.0948686" y="42" font-family="SFProDisplay-Light, SF Pro Display" font-weight="300" fill="#4A4A4A"> </tspan>
                <tspan x="47.2605351" y="42" font-family="SFProDisplay-Bold, SF Pro Display" font-weight="bold" fill="#2DCA5F">xp</tspan>
                <tspan x="60.1348367" y="42" font-family="SFProDisplay-Light, SF Pro Display" font-weight="300" fill="#4A4A4A"> </tspan>
                <tspan x="62.3005031" y="42" fill="#000000">every minute</tspan>
            </text>
            <g id="Rating" transform="translate(0.000000, 29.000000)">
                <circle id="rateOval" fill="#FE2E55" cx="8" cy="8" r="8"></circle>
                <text id="A" font-family="SFProDisplay-Bold, SF Pro Display" font-size="12" font-weight="bold" letter-spacing="-0.2894117" fill="#F8F8F8">
                    <tspan x="4.00505741" y="12">A</tspan>
                </text>
            </g>
            <text id="Table-Tennis" font-family="SFProText-Bold, SF Pro Text" font-size="18" font-weight="bold" letter-spacing="-0.4341176" fill="#000000">
                <tspan x="0.96017435" y="17">Table Tennis</tspan>
            </text>
        </g>
        <g id="Search-result-5" transform="translate(18.000000, 582.000000)">
            <text id="0,20-xp-every-minute" font-family="SFProDisplay-Regular, SF Pro Display" font-size="12" font-weight="normal" letter-spacing="-0.2894117">
                <tspan x="24.9107186" y="42" fill="#525252">0,20 </tspan>
                <tspan x="50.0828007" y="42" font-family="SFProDisplay-Medium, SF Pro Display" font-weight="400" fill="#2DCA5F">xp</tspan>
                <tspan x="62.1660867" y="42" fill="#525252"> every minute</tspan>
            </text>
            <g id="Rating" transform="translate(4.000000, 29.000000)">
                <circle id="rateOval" fill="#FE2E55" cx="8" cy="8" r="8"></circle>
                <text id="A" font-family="SFProDisplay-Bold, SF Pro Display" font-size="12" font-weight="bold" letter-spacing="-0.2894117" fill="#F8F8F8">
                    <tspan x="4.00505741" y="12">A</tspan>
                </text>
            </g>
            <text id="Golf" font-family="SFProText-Bold, SF Pro Text" font-size="18" font-weight="bold" letter-spacing="-0.4341176" fill="#000000">
                <tspan x="0.625559419" y="17">Golf</tspan>
            </text>
        </g>
        <path d="M344.53923,237.93923 C344.43923,237.93923 344.33923,237.93923 344.33923,237.83923 C344.13923,237.73923 344.03923,237.33923 344.13923,237.13923 L351.63923,222.93923 C351.63923,222.93923 351.579159,222.826991 351.549123,222.770871 L344.03923,208.73923 C343.93923,208.43923 344.03923,208.13923 344.23923,208.03923 C344.53923,207.93923 344.83923,208.03923 344.93923,208.23923 L352.63923,222.73923 C352.73923,222.93923 352.73923,223.03923 352.63923,223.23923 L344.93923,237.63923 C344.83923,237.83923 344.73923,237.93923 344.53923,237.93923 L344.53923,237.93923 L344.53923,237.93923 Z" id="Shape" fill-opacity="0.2" fill="#000000"></path>
        <g id="Rectangle-9">
            <use fill="black" fill-opacity="1" filter="url(#filter-2)" xlink:href="#path-1"></use>
            <use fill="#FE2E55" fill-rule="evenodd" xlink:href="#path-1"></use>
        </g>
        <g id="Group-3" transform="translate(39.000000, 144.000000)" fill="#FFFFFF" font-family="SFProText-Semibold, SF Pro Text" font-size="12" font-weight="500" letter-spacing="-0.2894118">
            <text id="Favourite">
                <tspan x="0.965439037" y="11">Favourite</tspan>
            </text>
        </g>
        <rect id="Rectangle-9" x="106" y="134" width="80.5" height="32" rx="15"></rect>
        <g id="Group-3" transform="translate(121.000000, 144.000000)" fill="#7F7F7F" font-family="SFProText-Semibold, SF Pro Text" font-size="12" font-weight="500" letter-spacing="-0.2894118">
            <text id="Effective">
                <tspan x="0.172470287" y="11">Effective</tspan>
            </text>
        </g>
        <rect id="Rectangle-9" x="186" y="134" width="80.5" height="32" rx="15"></rect>
        <g id="Group-3" transform="translate(202.000000, 142.000000)" fill="#7F7F7F" font-family="SFProText-Semibold, SF Pro Text" font-size="12" font-weight="500" letter-spacing="-0.2894118">
            <text id="Popular">
                <tspan x="2.88989442" y="13">Popular</tspan>
            </text>
        </g>
        <path d="M344.53923,333.93923 C344.43923,333.93923 344.33923,333.93923 344.33923,333.83923 C344.13923,333.73923 344.03923,333.33923 344.13923,333.13923 L351.63923,318.93923 L344.03923,304.73923 C343.93923,304.43923 344.03923,304.13923 344.23923,304.03923 C344.53923,303.93923 344.83923,304.03923 344.93923,304.23923 L352.63923,318.73923 C352.73923,318.93923 352.73923,319.03923 352.63923,319.23923 L344.93923,333.63923 C344.83923,333.83923 344.73923,333.93923 344.53923,333.93923 L344.53923,333.93923 L344.53923,333.93923 Z" id="Shape" fill-opacity="0.2" fill="#000000"></path>
        <path d="M344.53923,427.93923 C344.43923,427.93923 344.33923,427.93923 344.33923,427.83923 C344.13923,427.73923 344.03923,427.33923 344.13923,427.13923 L351.63923,412.93923 L344.03923,398.73923 C343.93923,398.43923 344.03923,398.13923 344.23923,398.03923 C344.53923,397.93923 344.83923,398.03923 344.93923,398.23923 L352.63923,412.73923 C352.73923,412.93923 352.73923,413.03923 352.63923,413.23923 L344.93923,427.63923 C344.83923,427.83923 344.73923,427.93923 344.53923,427.93923 L344.53923,427.93923 L344.53923,427.93923 Z" id="Shape" fill-opacity="0.2" fill="#000000"></path>
        <path d="M344.53923,522.93923 C344.43923,522.93923 344.33923,522.93923 344.33923,522.83923 C344.13923,522.73923 344.03923,522.33923 344.13923,522.13923 L351.63923,507.93923 L344.03923,493.73923 C343.93923,493.43923 344.03923,493.13923 344.23923,493.03923 C344.53923,492.93923 344.83923,493.03923 344.93923,493.23923 L352.63923,507.73923 C352.73923,507.93923 352.73923,508.03923 352.63923,508.23923 L344.93923,522.63923 C344.83923,522.83923 344.73923,522.93923 344.53923,522.93923 L344.53923,522.93923 L344.53923,522.93923 Z" id="Shape" fill-opacity="0.2" fill="#000000"></path>
        <path d="M344.53923,617.93923 C344.43923,617.93923 344.33923,617.93923 344.33923,617.83923 C344.13923,617.73923 344.03923,617.33923 344.13923,617.13923 L351.63923,602.93923 L344.03923,588.73923 C343.93923,588.43923 344.03923,588.13923 344.23923,588.03923 C344.53923,587.93923 344.83923,588.03923 344.93923,588.23923 L352.63923,602.73923 C352.73923,602.93923 352.73923,603.03923 352.63923,603.23923 L344.93923,617.63923 C344.83923,617.83923 344.73923,617.93923 344.53923,617.93923 L344.53923,617.93923 L344.53923,617.93923 Z" id="Shape" fill-opacity="0.2" fill="#000000"></path>
        <g id="Status-Bar/Black/100%" fill="#030303">
            <g id="Pin-Right" stroke-width="1" fill-rule="evenodd" transform="translate(309.000000, 3.000000)">
                <path d="M57.0062872,2.5 C57.8266197,2.5 58.5,3.17394722 58.5,4.00530324 L58.5,4.00530324 L58.5,10.4946968 C58.5,11.3319784 57.831242,12 57.0062872,12 L57.0062872,12 L37.4937128,12 C36.6733803,12 36,11.3260528 36,10.4946968 L36,10.4946968 L36,4.00530324 C36,3.16802155 36.668758,2.5 37.4937128,2.5 L37.4937128,2.5 Z M56.9918476,3 L37.5081524,3 C36.9513652,3 36.5,3.45699692 36.5,4.00844055 L36.5,10.4915594 C36.5,11.0485058 36.9490581,11.5 37.5081524,11.5 L56.9918476,11.5 C57.5486348,11.5 58,11.0430031 58,10.4915594 L58,4.00844055 C58,3.45149422 57.5509419,3 56.9918476,3 Z M56.9932556,3.5 C57.2697754,3.5 57.5,3.72031886 57.5,3.99209595 L57.5,3.99209595 L57.5,10.5079041 C57.5,10.783628 57.2731228,11 56.9932556,11 L56.9932556,11 L37.5067444,11 C37.2302246,11 37,10.7796811 37,10.5079041 L37,10.5079041 L37,3.99209595 C37,3.71637201 37.2268772,3.5 37.5067444,3.5 L37.5067444,3.5 Z M59.75,5.5 C60.1671014,5.5 60.5,5.83232111 60.5,6.24225998 L60.5,6.24225998 L60.5,8.25774002 C60.5,8.66440529 60.1642136,9 59.75,9 L59.75,9 L59,9 L59,5.5 Z" id="Battery"></path>
                <text id="100%" font-family="SFProText-Regular, SF Pro Text" font-size="12" font-weight="normal">
                    <tspan x="2.20898438" y="12.5">100%</tspan>
                </text>
            </g>
            <text id="9:41-AM" font-family="SFProText-Semibold, SF Pro Text" font-size="12" font-weight="500">
                <tspan x="163.239258" y="15.5">9:41 AM</tspan>
            </text>
            <g id="Pin-Left" stroke-width="1" fill-rule="evenodd" transform="translate(6.000000, 3.000000)">
                <path d="M87.987563,8.46891192 C88.8523616,8.46891192 89.626374,8.84544555 90.1444208,9.43850432 L90.1444208,9.43850432 L88.0225391,11.5 L85.8601652,9.40531769 C86.3778594,8.83143413 87.1390073,8.46891192 87.987563,8.46891192 Z M87.987563,5.48445596 C89.7014387,5.48445596 91.2447794,6.19174563 92.3234964,7.32144245 L92.3234964,7.32144245 L91.2346215,8.37932931 C90.4356305,7.51823504 89.2768836,6.97668394 87.987563,6.97668394 C86.713648,6.97668394 85.567205,7.5053708 84.7692987,8.34859996 L84.7692987,8.34859996 L83.6792698,7.29269359 C84.7566264,6.17975893 86.2882723,5.48445596 87.987563,5.48445596 Z M87.987563,2.5 C90.5505699,2.5 92.8629578,3.53943672 94.5,5.20687933 L94.5,5.20687933 L93.4118698,6.26404272 C92.0538809,4.86552609 90.1260026,3.99222798 87.987563,3.99222798 C85.8628921,3.99222798 83.9460798,4.85431655 82.5895579,6.23709441 L82.5895579,6.23709441 L81.5,5.18164431 C83.1355496,3.52895605 85.4375103,2.5 87.987563,2.5 Z" id="Wi-Fi"></path>
                <text id="Carrier" font-family="SFProText-Regular, SF Pro Text" font-size="12" font-weight="normal">
                    <tspan x="38" y="12.5">Future</tspan>
                </text>
                <path d="M3.25,4.5 C4.76878306,4.5 6,5.73121694 6,7.25 C6,8.76878306 4.76878306,10 3.25,10 C1.73121694,10 0.5,8.76878306 0.5,7.25 C0.5,5.73121694 1.73121694,4.5 3.25,4.5 Z M10.25,4.5 C11.7687831,4.5 13,5.73121694 13,7.25 C13,8.76878306 11.7687831,10 10.25,10 C8.73121694,10 7.5,8.76878306 7.5,7.25 C7.5,5.73121694 8.73121694,4.5 10.25,4.5 Z M17.25,4.5 C18.7687831,4.5 20,5.73121694 20,7.25 C20,8.76878306 18.7687831,10 17.25,10 C15.7312169,10 14.5,8.76878306 14.5,7.25 C14.5,5.73121694 15.7312169,4.5 17.25,4.5 Z M24.25,4.5 C25.7687831,4.5 27,5.73121694 27,7.25 C27,8.76878306 25.7687831,10 24.25,10 C22.7312169,10 21.5,8.76878306 21.5,7.25 C21.5,5.73121694 22.7312169,4.5 24.25,4.5 Z M31.25,4.5 C32.7687831,4.5 34,5.73121694 34,7.25 C34,8.76878306 32.7687831,10 31.25,10 C29.7312169,10 28.5,8.76878306 28.5,7.25 C28.5,5.73121694 29.7312169,4.5 31.25,4.5 Z" id="Mobile-Signal"></path>
            </g>
        </g>
        <g id="Group-2" transform="translate(0.000000, 620.000000)">
            <g id="Rectangle-4">
                <use fill="black" fill-opacity="1" filter="url(#filter-4)" xlink:href="#path-3"></use>
                <use fill="#FFFFFF" fill-rule="evenodd" xlink:href="#path-3"></use>
            </g>
            <path d="M272,22.0788177 C272,24.3119953 272.788171,26.2167425 274.364532,27.7931034 C275.940893,29.3694644 277.84564,30.1576355 280.078818,30.1576355 C281.458134,30.1576355 282.673233,29.862069 283.724138,29.270936 L287.763547,33.3103448 C288.223319,33.770117 288.748765,34 289.339901,34 C289.996719,34 290.538586,33.8029576 290.965517,33.408867 C291.392449,33.0147783 291.605911,32.4893289 291.605911,31.8325123 C291.605911,31.1756958 291.376029,30.6174077 290.916256,30.1576355 L286.975369,26.2167488 C287.763551,24.8374321 288.157635,23.4581344 288.157635,22.0788177 C288.157635,19.8456402 287.369466,17.940893 285.793103,16.364532 C284.216742,14.788171 282.311995,14 280.078818,14 C277.84564,14 275.940893,14.788171 274.364532,16.364532 C272.788171,17.940893 272,19.8456402 272,22.0788177 Z M284.70936,22.0788177 C284.70936,23.3924508 284.249594,24.509027 283.330049,25.4285714 C282.410505,26.3481159 281.326774,26.8078818 280.078818,26.8078818 C278.830862,26.8078818 277.730711,26.3481159 276.778328,25.4285714 C275.825939,24.509027 275.349754,23.3924508 275.349754,22.0788177 C275.349754,20.8308619 275.80952,19.7471306 276.729064,18.8275862 C277.648608,17.9080418 278.765185,17.4482759 280.078818,17.4482759 C281.326774,17.4482759 282.410505,17.8916225 283.330049,18.7783283 C284.249594,19.6650278 284.70936,20.7651846 284.70936,22.0788177 Z" id="Page-1" fill="#000000"></path>
            <path d="M103.077922,20.7012987 C103.251084,20.8051948 103.337662,20.9783539 103.337662,21.2207792 L103.337662,33.3246753 C103.337662,33.774894 103.112555,34 102.662338,34 L97.6753247,34 C97.2597369,34 97.0519481,33.774894 97.0519481,33.3246753 L97.0519481,25.8961039 L91.2857143,25.8961039 L91.2857143,33.3246753 C91.2857143,33.774894 91.0779254,34 90.6623377,34 L85.6753247,34 C85.225106,34 85,33.774894 85,33.3246753 L85,21.2207792 C85,20.9783539 85.0865792,20.8051948 85.2597403,20.7012987 L93.6233766,14 C93.9004351,13.7922078 94.177487,13.7922078 94.4545455,14 L103.077922,20.7012987 Z" id="Page-1" fill="#DDDEE0"></path>
        </g>
        <path d="M38,49.2065728 C40.5352233,49.2065728 42.5383331,48.1267726 44.0093897,45.9671362 C43.9780898,45.0907628 43.2738734,44.3552466 41.8967136,43.7605634 C40.5195538,43.1658802 39.2206633,42.8685446 38,42.8685446 C36.7793367,42.8685446 35.4804462,43.158056 34.1032864,43.7370877 C32.7261266,44.3161224 32.0219102,45.0594629 31.9906103,45.9671362 C33.4616669,48.1267726 35.4647767,49.2065728 38,49.2065728 Z M38,34.9812207 C37.1862235,34.9812207 36.4820071,35.2785562 35.8873239,35.8732394 C35.2926408,36.4679226 34.9953052,37.172139 34.9953052,37.9859155 C34.9953052,38.799692 35.2926408,39.5039084 35.8873239,40.0985915 C36.4820071,40.6932747 37.1862235,40.9906103 38,40.9906103 C38.8137765,40.9906103 39.5179929,40.6932747 40.1126761,40.0985915 C40.7073592,39.5039084 41.0046948,38.799692 41.0046948,37.9859155 C41.0046948,37.172139 40.7073592,36.4679226 40.1126761,35.8732394 C39.5179929,35.2785562 38.8137765,34.9812207 38,34.9812207 Z M38,31.9765258 C40.7543166,31.9765258 43.1095377,32.9546081 45.0657292,34.9107966 C47.0219177,36.8669882 48,39.2222092 48,41.9765258 C48,44.7308424 47.0219177,47.0860635 45.0657292,49.0422535 C43.1095377,50.9984448 40.7543166,51.9765258 38,51.9765258 C35.2456834,51.9765258 32.8904623,50.9984448 30.9342723,49.0422535 C28.9780811,47.0860635 28,44.7308424 28,41.9765258 C28,39.2222092 28.9780811,36.8669882 30.9342723,34.9107966 C32.8904623,32.9546081 35.2456834,31.9765258 38,31.9765258 Z" id="Page-1" fill="#000000"></path>
        <path d="M0,0 L375,0 L375,52 C375,60.2842712 368.284271,67 360,67 L15,67 C6.71572875,67 1.01453063e-15,60.2842712 0,52 L0,0 L0,0 Z" id="Rectangle-19" fill="#FE2E55"></path>
        <g id="Group" transform="translate(19.000000, 19.000000)" fill="#FEDC00">
            <g id="Group-6">
                <path d="M8.33585153,13.7414148 C7.43795415,11.7757469 6.98901157,9.52496759 6.98901157,6.98901157 L2.32967025,6.98901157 L2.32967025,8.73626242 C2.32967025,9.68269557 2.9029818,10.6655153 4.04962203,11.6847541 C5.19626226,12.7039889 6.62499129,13.3895356 8.33585153,13.7414148 Z M27.9560422,8.73626242 L27.9560422,6.98901157 L23.2967025,6.98901157 C23.2967025,9.52496759 22.8477599,11.7757469 21.9498625,13.7414148 C23.6607228,13.3895356 25.0894477,12.7039889 26.2360904,11.6847541 C27.382729,10.6655153 27.9560422,9.68269557 27.9560422,8.73626242 Z M30.28571,6.40659462 L30.28571,8.73626242 C30.28571,9.59776104 30.0339396,10.4653098 29.5303908,11.3389414 C29.0268378,12.2125729 28.3473575,13.0012536 27.4919294,13.705012 C26.6364972,14.4087704 25.5869424,15.000283 24.3432323,15.479566 C23.0995221,15.958849 21.7921305,16.2288229 20.4210165,16.2894916 C19.9113971,16.9447142 19.3350507,17.5210606 18.691961,18.018543 C18.2308814,18.4310909 17.9123718,18.8709338 17.7364322,19.3380839 C17.5604926,19.805234 17.4725248,20.3482108 17.4725248,20.9670306 C17.4725248,21.6222533 17.6575641,22.1743338 18.0276427,22.6232805 C18.3977213,23.0722312 18.9892339,23.2967025 19.8021967,23.2967025 C20.712227,23.2967025 21.5221444,23.5727428 22.2319693,24.124827 C22.9417942,24.6769129 23.2967025,25.3715602 23.2967025,26.2087897 L23.2967025,27.3736248 C23.2967025,27.5434972 23.2421003,27.6830334 23.1328958,27.7922373 C23.0236914,27.9014411 22.8841546,27.9560422 22.7142856,27.9560422 L7.57142852,27.9560422 C7.40155538,27.9560422 7.26201862,27.9014411 7.15281417,27.7922373 C7.04360972,27.6830334 6.98901157,27.5434972 6.98901157,27.3736248 L6.98901157,26.2087897 C6.98901157,25.3715602 7.34391585,24.6769129 8.05374071,24.124827 C8.76356557,23.5727428 9.57348297,23.2967025 10.4835174,23.2967025 C11.2964761,23.2967025 11.8879887,23.0722312 12.2580673,22.6232805 C12.6281499,22.1743338 12.8131852,21.6222533 12.8131852,20.9670306 C12.8131852,20.3482108 12.7252174,19.805234 12.5492778,19.3380839 C12.3733382,18.8709338 12.0548327,18.4310909 11.593749,18.018543 C10.9506593,17.5210606 10.3743129,16.9447142 9.86469756,16.2894916 C8.4935836,16.2288229 7.18618786,15.958849 5.94247773,15.479566 C4.69876761,15.000283 3.64921399,14.4087704 2.79378428,13.705012 C1.93835416,13.0012536 1.25887383,12.2125729 0.755322914,11.3389414 C0.251771709,10.4653098 1.77635684e-15,9.59776104 1.77635684e-15,8.73626242 L1.77635684e-15,6.40659462 C1.77635684e-15,5.92124512 0.169870082,5.50870131 0.509615342,5.16895503 C0.849360398,4.82921283 1.26190217,4.65933969 1.74725248,4.65933969 L6.98901157,4.65933969 L6.98901157,2.91208883 C6.98901157,2.1112589 7.27414747,1.42571211 7.84443557,0.855428082 C8.41472368,0.285139976 9.10027047,0 9.90109632,0 L20.3846137,0 C21.1854436,0 21.8709904,0.285139976 22.4412744,0.855428082 C23.0115625,1.42571211 23.2967025,2.1112589 23.2967025,2.91208883 L23.2967025,4.65933969 L28.5384591,4.65933969 C29.0238086,4.65933969 29.4363525,4.82921283 29.7760947,5.16895503 C30.1158409,5.50870131 30.28571,5.92124512 30.28571,6.40659462 Z" id="Page-1"></path>
            </g>
        </g>
        <g id="Group" transform="translate(61.000000, 14.000000)" fill="#FFFFFF">
            <text id="Books-reader" font-family="SFProText-Bold, SF Pro Text" font-size="16" font-weight="bold" letter-spacing="-0.4713637">
                <tspan x="0" y="15">Books reader </tspan>
            </text>
            <text id="Read-a-lot-of-books." font-family="SFProText-Semibold, SF Pro Text" font-size="14" font-weight="500" letter-spacing="-0.4124433" fill-opacity="0.9">
                <tspan x="0" y="35">Read a lot of books.</tspan>
            </text>
        </g>
        <g id="Page-1">
            <use fill="black" fill-opacity="1" filter="url(#filter-6)" xlink:href="#path-5"></use>
            <use fill="#FE2E55" fill-rule="evenodd" xlink:href="#path-5"></use>
        </g>
        <g id="search" transform="translate(19.000000, 83.000000)">
            <path d="M10,0 L289,0 C294.522847,-1.01453063e-15 299,4.4771525 299,10 L299,26 C299,31.5228475 294.522847,36 289,36 L10,36 C4.4771525,36 6.76353751e-16,31.5228475 0,26 L0,10 C-6.76353751e-16,4.4771525 4.4771525,1.01453063e-15 10,0 Z" id="input" fill="#DDDEE0"></path>
            <text id="Search" font-family="SFProText-Regular, SF Pro Text" font-size="17" font-weight="normal" letter-spacing="-0.5" fill="#8D8D94">
                <tspan x="31" y="24">Search</tspan>
            </text>
            <path d="M14.517332,11 C17.5644703,11 20.034664,13.4272595 20.034664,16.4214359 C20.034664,17.5600785 19.6774313,18.6167351 19.067087,19.4890946 L22.7250961,23.1480093 C23.110042,23.5329552 23.110042,24.1570758 22.7250961,24.5420217 C22.3401502,24.9269676 21.7160296,24.9269676 21.3310837,24.5420217 L17.6639941,20.8753007 C16.7714736,21.4852831 15.6869011,21.8428717 14.517332,21.8428717 C11.4701937,21.8428717 9,19.4156122 9,16.4214359 C9,13.4272595 11.4701937,11 14.517332,11 Z M14.517332,11.9857156 C12.0242188,11.9857156 10.0031513,13.9716552 10.0031513,16.4214359 C10.0031513,18.8712165 12.0242188,20.8571561 14.517332,20.8571561 C17.0104451,20.8571561 19.0315127,18.8712165 19.0315127,16.4214359 C19.0315127,13.9716552 17.0104451,11.9857156 14.517332,11.9857156 Z" fill="#8E8E93" opacity="0.900000036"></path>
        </g>
    </g>
</svg>