<?xml version="1.0" encoding="UTF-8"?>
<svg width="92px" height="22px" viewBox="0 0 92 22" version="1.1" xmlns="http://www.w3.org/2000/svg" xmlns:xlink="http://www.w3.org/1999/xlink">
    <!-- Generator: Sketch 61 (89581) - https://sketch.com -->
    <title>Future</title>
    <desc>Created with Sketch.</desc>
    <g id="restored-file" stroke="none" stroke-width="1" fill="none" fill-rule="evenodd">
        <g id="Desktop-HD" transform="translate(-215.000000, -34.000000)" fill="#000000">
            <path d="M227.096,38.648 L220.488,38.648 L220.488,42.176 L226.508,42.176 L226.508,46.824 L220.488,46.824 L220.488,55.112 L215,55.112 L215,37 C215,35.3431458 216.343146,34 218,34 L227.096,34 L227.096,34 L227.096,38.648 Z M234.964,40.748 L234.964,48.84 C234.964,50.6133422 235.822658,51.5 237.54,51.5 C239.257342,51.5 240.116,50.6133422 240.116,48.84 L240.116,40.748 L245.184,40.748 L245.184,49.82 C245.184,51.761343 244.544673,53.2173285 243.266,54.188 C241.987327,55.1586715 240.078679,55.644 237.54,55.644 C235.001321,55.644 233.092673,55.1586715 231.814,54.188 C230.535327,53.2173285 229.896,51.761343 229.896,49.82 L229.896,40.748 L234.964,40.748 Z M254.284,44.976 L254.284,55.112 L249.216,55.112 L249.216,44.976 L247.536,44.976 L247.536,40.748 L249.216,40.748 L249.216,36.436 L254.284,36.436 L254.284,40.748 L257.168,40.748 L257.168,44.976 L254.284,44.976 Z M264.14,40.748 L264.14,48.84 C264.14,50.6133422 264.998658,51.5 266.716,51.5 C268.433342,51.5 269.292,50.6133422 269.292,48.84 L269.292,40.748 L274.36,40.748 L274.36,49.82 C274.36,51.761343 273.720673,53.2173285 272.442,54.188 C271.163327,55.1586715 269.254679,55.644 266.716,55.644 C264.177321,55.644 262.268673,55.1586715 260.99,54.188 C259.711327,53.2173285 259.072,51.761343 259.072,49.82 L259.072,40.748 L264.14,40.748 Z M277.804,40.748 L282.872,40.748 L282.872,43.1 C283.413336,42.241329 284.075996,41.5833356 284.86,41.126 C285.644004,40.6686644 286.558661,40.44 287.604,40.44 L288.038,40.44 C288.196667,40.44 288.378666,40.4586665 288.584,40.496 L288.584,45.34 C287.911997,45.0039983 287.184004,44.836 286.4,44.836 C285.223994,44.836 284.342003,45.1859965 283.754,45.886 C283.165997,46.5860035 282.872,47.6079933 282.872,48.952 L282.872,55.112 L277.804,55.112 L277.804,40.748 Z M301.324,45.844 C301.155999,45.1346631 300.810669,44.5653355 300.288,44.136 C299.765331,43.7066645 299.13067,43.492 298.384,43.492 C297.599996,43.492 296.960669,43.6973313 296.466,44.108 C295.971331,44.5186687 295.658667,45.0973296 295.528,45.844 L301.324,45.844 Z M295.388,48.784 C295.388,50.9680109 296.414656,52.06 298.468,52.06 C299.569339,52.06 300.399997,51.6120045 300.96,50.716 L305.86,50.716 C304.870662,54.0013498 302.397353,55.644 298.44,55.644 C297.226661,55.644 296.116005,55.4620018 295.108,55.098 C294.099995,54.7339982 293.23667,54.216 292.518,53.544 C291.79933,52.8719966 291.244002,52.069338 290.852,51.136 C290.459998,50.202662 290.264,49.1573391 290.264,48 C290.264,46.8053274 290.450665,45.7273381 290.824,44.766 C291.197335,43.8046619 291.72933,42.9880034 292.42,42.316 C293.11067,41.6439966 293.945995,41.1260018 294.926,40.762 C295.906005,40.3979982 297.011994,40.216 298.244,40.216 C299.457339,40.216 300.549328,40.3979982 301.52,40.762 C302.490672,41.1260018 303.311997,41.6533299 303.984,42.344 C304.656003,43.0346701 305.169332,43.8793283 305.524,44.878 C305.878668,45.8766717 306.056,47.0013271 306.056,48.252 L306.056,48.784 L295.388,48.784 Z" id="Future"></path>
        </g>
    </g>
</svg>